<svg id="extwcrcahlls1" xmlns="http://www.w3.org/2000/svg" xmlns:xlink="http://www.w3.org/1999/xlink" viewBox="0 0 640 480" shape-rendering="geometricPrecision" text-rendering="geometricPrecision"><g id="extwcrcahlls2"><ellipse id="extwcrcahlls3" rx="194" ry="194" transform="matrix(1 0 0 1 306.96506854000000 226.49952005000000)" fill="none" stroke="rgb(31,110,33)" stroke-width="4" stroke-dasharray="0,1220"/></g><g id="extwcrcahlls4"><g id="extwcrcahlls5"><path id="extwcrcahlls6" d="M150.750000,322.750000C150.750000,322.750000,309.250000,226.750000,309,226.500000C308.750000,226.250000,464.750000,323.750000,464.500000,323.500000" fill="none" stroke="rgb(31,110,33)" stroke-width="4" stroke-dasharray="0,370"/><line id="extwcrcahlls7" x1="244.729700" y1="265.896410" x2="371.976030" y2="265.896410" fill="none" stroke="rgb(31,110,33)" stroke-width="3" stroke-dasharray="0,128"/></g><path id="extwcrcahlls8" d="M181.374630,266.999990C181.374630,266.999990,244.874630,157.499990,244.874630,157.499990C244.874630,157.499990,308.874630,220.499990,308.624630,220.249990C308.374630,219.999990,369.374630,155.499990,369.124630,155.249990C368.874630,154.999990,433.874630,267.999990,433.624630,267.749990" transform="matrix(1 0 0 1 0.12516042500010 -1.85399421000000)" fill="none" stroke="rgb(31,110,33)" stroke-width="4" stroke-dasharray="0,434.550000"/><path id="extwcrcahlls9" d="M332.621360,89.059000C332.621360,89.059000,309.724320,49.059000,308.728800,49.059000C307.733280,49.059000,248.997400,149.059000,248.997400,149.059000C248.997400,149.059000,367.464670,150.059000,366.469150,150.059000" transform="matrix(0.99988300000000 -0.01527200000000 0.01527200000000 0.99988300000000 -1.48455000000000 4.71127000000000)" fill="none" stroke="rgb(31,110,33)" stroke-width="4" stroke-dasharray="0,300"/></g></svg>